{"accessors":[{"bufferView":0,"componentType":5125,"count":888,"max":[411.0],"min":[0.0],"type":"SCALAR"},{"bufferView":1,"componentType":5126,"count":412,"max":[18.77715301513672,9.349169731140137,8.300000190734864],"min":[5.177154064178467,4.149169921875,-0.5],"type":"VEC3"},{"bufferView":2,"componentType":5126,"count":412,"max":[1.0,1.0,1.0],"min":[-1.0,-1.0,-1.0],"type":"VEC3"},{"bufferView":3,"componentType":5125,"count":2856,"max":[1115.0],"min":[0.0],"type":"SCALAR"},{"bufferView":4,"componentType":5126,"count":1116,"max":[5.1271538734436039,9.199170112609864,10.800000190734864],"min":[-7.67284631729126,4.299170017242432,10.140000343322754],"type":"VEC3"},{"bufferView":5,"componentType":5126,"count":1116,"max":[1.0,1.0,1.0],"min":[-1.0,-1.0,-1.0],"type":"VEC3"},{"bufferView":6,"componentType":5125,"count":1491,"max":[601.0],"min":[0.0],"type":"SCALAR"},{"bufferView":7,"componentType":5126,"count":602,"max":[28.77715301513672,8.249170303344727,3.0],"min":[23.27715301513672,5.249169826507568,-0.20000000298023225],"type":"VEC3"},{"bufferView":8,"componentType":5126,"count":602,"max":[1.0,1.0,1.0],"min":[-1.0,-1.0,-1.0],"type":"VEC3"},{"bufferView":9,"componentType":5125,"count":528,"max":[215.0],"min":[0.0],"type":"SCALAR"},{"bufferView":10,"componentType":5126,"count":216,"max":[33.27715301513672,8.249170303344727,3.0],"min":[30.977153778076173,5.249169826507568,-0.20000000298023225],"type":"VEC3"},{"bufferView":11,"componentType":5126,"count":216,"max":[1.0,1.0,1.0],"min":[-1.0,-1.0,-1.0],"type":"VEC3"}],"asset":{"generator":"SimLab GLTF","version":"2.0"},"bufferViews":[{"buffer":0,"byteLength":3552,"target":34963},{"buffer":0,"byteLength":4944,"byteOffset":3552,"byteStride":12,"target":34962},{"buffer":0,"byteLength":4944,"byteOffset":8496,"byteStride":12,"target":34962},{"buffer":0,"byteLength":11424,"byteOffset":13440,"target":34963},{"buffer":0,"byteLength":13392,"byteOffset":24864,"byteStride":12,"target":34962},{"buffer":0,"byteLength":13392,"byteOffset":38256,"byteStride":12,"target":34962},{"buffer":0,"byteLength":5964,"byteOffset":51648,"target":34963},{"buffer":0,"byteLength":7224,"byteOffset":57612,"byteStride":12,"target":34962},{"buffer":0,"byteLength":7224,"byteOffset":64836,"byteStride":12,"target":34962},{"buffer":0,"byteLength":2112,"byteOffset":72060,"target":34963},{"buffer":0,"byteLength":2592,"byteOffset":74172,"byteStride":12,"target":34962},{"buffer":0,"byteLength":2592,"byteOffset":76764,"byteStride":12,"target":34962}],"buffers":[{"byteLength":79356,"uri":"Agri-Scan.bin"}],"extensionsUsed":["KHR_materials_pbrSpecularGlossiness"],"materials":[{"extensions":{"KHR_materials_pbrSpecularGlossiness":{"diffuseFactor":[0.6274510025978088,0.6274510025978088,0.6274510025978088,1.0],"specularFactor":[0.0,0.0,0.0],"glossinessFactor":0.5}},"name":"Steel - Satin","alphaMode":"MASK","doubleSided":true,"pbrMetallicRoughness":{"baseColorFactor":[0.6274510025978088,0.6274510025978088,0.6274510025978088,1.0],"metallicFactor":0.5}}],"meshes":[{"primitives":[{"attributes":{"NORMAL":2,"POSITION":1},"indices":0,"material":0,"mode":4}]},{"primitives":[{"attributes":{"NORMAL":5,"POSITION":4},"indices":3,"material":0,"mode":4}]},{"primitives":[{"attributes":{"NORMAL":8,"POSITION":7},"indices":6,"material":0,"mode":4}]},{"primitives":[{"attributes":{"NORMAL":11,"POSITION":10},"indices":9,"material":0,"mode":4}]}],"nodes":[{"children":[1,2],"matrix":[1.0,0.0,0.0,0.0,0.0,4.4896593387466768e-11,-1.0,0.0,0.0,1.0,4.4896593387466768e-11,0.0,0.0,0.0,0.0,1.0]},{"name":"Camera-2","rotation":[-0.7071067690849304,0.0,0.0,-0.7071067690849304],"translation":[0.12802153825759889,-1.6894999742507935,0.06749169528484345]},{"name":"Tagum City High v9","children":[3,4,5,6],"rotation":[-0.7071067690849304,0.0,0.0,-0.7071067690849304],"scale":[0.009999999776482582,0.009999999776482582,0.009999999776482582]},{"name":"Case","mesh":0,"rotation":[0.0,0.0,0.0,-1.0]},{"name":"Lid","mesh":1,"rotation":[0.0,0.0,0.0,-1.0]},{"name":"Sensor","mesh":2,"rotation":[0.0,0.0,0.0,-1.0]},{"name":"Cap","mesh":3,"rotation":[0.0,0.0,0.0,-1.0]}],"scene":0,"scenes":[{"nodes":[0]}]}