{"accessors":[{"bufferView":0,"componentType":5125,"count":30,"max":[19.0],"min":[0.0],"type":"SCALAR"},{"bufferView":1,"componentType":5126,"count":20,"max":[6.923813819885254,-55.849456787109378,89.11067962646485],"min":[-7.5103864669799809,-60.34754180908203,72.5675277709961],"type":"VEC3"},{"bufferView":2,"componentType":5126,"count":20,"max":[1.0,0.258819043636322,0.9659258127212524],"min":[-1.0,-0.9659258127212524,-0.9659258127212524],"type":"VEC3"},{"bufferView":3,"componentType":5125,"count":6,"max":[3.0],"min":[0.0],"type":"SCALAR"},{"bufferView":4,"componentType":5126,"count":4,"max":[6.923813819885254,-55.849456787109378,89.09181213378906],"min":[-7.5103864669799809,-60.27712631225586,72.5675277709961],"type":"VEC3"},{"bufferView":5,"componentType":5126,"count":4,"max":[-2.317074343645777e-17,0.9659258127212524,-0.258819043636322],"min":[-2.317074343645777e-17,0.9659258127212524,-0.258819043636322],"type":"VEC3"},{"bufferView":6,"componentType":5125,"count":72,"max":[39.0],"min":[0.0],"type":"SCALAR"},{"bufferView":7,"componentType":5126,"count":40,"max":[6.9258012771606449,-55.83954620361328,89.10802459716797],"min":[-7.508398532867432,-60.33763122558594,72.56487274169922],"type":"VEC3"},{"bufferView":8,"componentType":5126,"count":40,"max":[1.0,0.9659258127212524,0.9659258127212524],"min":[-1.0,-0.258819043636322,-0.9659258127212524],"type":"VEC3"},{"bufferView":9,"componentType":5125,"count":24,"max":[7.0],"min":[0.0],"type":"SCALAR"},{"bufferView":10,"componentType":5126,"count":8,"max":[6.9258012771606449,-55.90996170043945,89.10802459716797],"min":[-7.508398532867432,-60.33763122558594,72.583740234375],"type":"VEC3"},{"bufferView":11,"componentType":5126,"count":8,"max":[3.448733025926306e-17,-0.9659258127212524,0.258819043636322],"min":[3.448733025926306e-17,-0.9659258127212524,0.258819043636322],"type":"VEC3"},{"bufferView":12,"componentType":5125,"count":24,"max":[15.0],"min":[0.0],"type":"SCALAR"},{"bufferView":13,"componentType":5126,"count":16,"max":[6.923813819885254,-55.870323181152347,89.10369110107422],"min":[-7.5103864669799809,-60.32146453857422,72.57311248779297],"type":"VEC3"},{"bufferView":14,"componentType":5126,"count":16,"max":[1.0,0.9659258127212524,0.258819043636322],"min":[-1.0,-0.9659258127212524,-0.258819043636322],"type":"VEC3"},{"bufferView":15,"componentType":5125,"count":12,"max":[7.0],"min":[0.0],"type":"SCALAR"},{"bufferView":16,"componentType":5126,"count":8,"max":[6.923813819885254,-55.870323181152347,89.10369110107422],"min":[-7.5103864669799809,-60.32146453857422,72.57311248779297],"type":"VEC3"},{"bufferView":17,"componentType":5126,"count":8,"max":[2.220446049250313e-16,0.258819043636322,0.9659258127212524],"min":[-2.220446049250313e-16,-0.258819043636322,-0.9659258127212524],"type":"VEC3"},{"bufferView":18,"componentType":5125,"count":24,"max":[15.0],"min":[0.0],"type":"SCALAR"},{"bufferView":19,"componentType":5126,"count":16,"max":[6.923813819885254,-55.86562728881836,89.10243225097656],"min":[-7.5103864669799809,-60.316768646240237,72.57186126708985],"type":"VEC3"},{"bufferView":20,"componentType":5126,"count":16,"max":[1.0,0.9659258127212524,0.258819043636322],"min":[-1.0,-0.9659258127212524,-0.258819043636322],"type":"VEC3"},{"bufferView":21,"componentType":5125,"count":12,"max":[7.0],"min":[0.0],"type":"SCALAR"},{"bufferView":22,"componentType":5126,"count":8,"max":[6.923813819885254,-55.86562728881836,89.10243225097656],"min":[-7.5103864669799809,-60.316768646240237,72.57186126708985],"type":"VEC3"},{"bufferView":23,"componentType":5126,"count":8,"max":[2.220446049250313e-16,0.258819043636322,0.9659258127212524],"min":[-2.220446049250313e-16,-0.258819043636322,-0.9659258127212524],"type":"VEC3"},{"bufferView":24,"componentType":5125,"count":43932,"max":[22839.0],"min":[0.0],"type":"SCALAR"},{"bufferView":25,"componentType":5126,"count":22840,"max":[6.4084272384643559,-56.1221923828125,88.29715728759766],"min":[-7.0051727294921879,-60.11589813232422,73.37847900390625],"type":"VEC3"},{"bufferView":26,"componentType":5126,"count":22840,"max":[1.0,0.9659258127212524,0.9659258127212524],"min":[-1.0,-0.9659258127212524,-0.9659258127212524],"type":"VEC3"},{"bufferView":27,"componentType":5125,"count":7800,"max":[2887.0],"min":[0.0],"type":"SCALAR"},{"bufferView":28,"componentType":5126,"count":2888,"max":[6.4084272384643559,-56.070552825927737,88.29715728759766],"min":[-6.567772388458252,-60.11589813232422,73.37847900390625],"type":"VEC3"},{"bufferView":29,"componentType":5126,"count":2888,"max":[1.0,0.9659258127212524,0.9659258127212524],"min":[-1.0,-9.258917146436757e-17,-0.258819043636322],"type":"VEC3"},{"bufferView":30,"componentType":5125,"count":14472,"max":[5581.0],"min":[0.0],"type":"SCALAR"},{"bufferView":31,"componentType":5126,"count":5582,"max":[6.996713638305664,-45.0,122.80000305175781],"min":[-7.583286285400391,-60.85860061645508,0.0],"type":"VEC3"},{"bufferView":32,"componentType":5126,"count":5582,"max":[1.0,1.0,1.0],"min":[-1.0,-1.0,-1.0],"type":"VEC3"},{"bufferView":33,"componentType":5125,"count":8478,"max":[2334.0],"min":[0.0],"type":"SCALAR"},{"bufferView":34,"componentType":5126,"count":2335,"max":[-1.4901292324066163,-38.0,51.849544525146487],"min":[-60.49556350708008,-48.0,-1.8050488233566285],"type":"VEC3"},{"bufferView":35,"componentType":5126,"count":2335,"max":[1.0,1.0,1.0],"min":[-1.0,-1.0,-1.0],"type":"VEC3"},{"bufferView":36,"componentType":5125,"count":528,"max":[215.0],"min":[0.0],"type":"SCALAR"},{"bufferView":37,"componentType":5126,"count":216,"max":[-1.4901292324066163,-35.599998474121097,51.849544525146487],"min":[-18.990129470825197,-37.900001525878909,26.849546432495118],"type":"VEC3"},{"bufferView":38,"componentType":5126,"count":216,"max":[1.0,1.0,1.0],"min":[-1.0,-1.0,-1.0],"type":"VEC3"},{"bufferView":39,"componentType":5125,"count":696,"max":[249.0],"min":[0.0],"type":"SCALAR"},{"bufferView":40,"componentType":5126,"count":250,"max":[-20.07455825805664,-47.5,46.77302551269531],"min":[-21.073850631713868,-48.0,45.773380279541019],"type":"VEC3"},{"bufferView":41,"componentType":5126,"count":250,"max":[1.0,1.0,0.9996455907821655],"min":[-0.9985827207565308,-1.0,-0.9996455907821655],"type":"VEC3"},{"bufferView":42,"componentType":5125,"count":696,"max":[249.0],"min":[0.0],"type":"SCALAR"},{"bufferView":43,"componentType":5126,"count":250,"max":[-20.07455825805664,-47.5,36.24626159667969],"min":[-21.073850631713868,-48.0,35.24661636352539],"type":"VEC3"},{"bufferView":44,"componentType":5126,"count":250,"max":[1.0,1.0,0.9996455907821655],"min":[-0.9985827207565308,-1.0,-0.9996455907821655],"type":"VEC3"},{"bufferView":45,"componentType":5125,"count":696,"max":[249.0],"min":[0.0],"type":"SCALAR"},{"bufferView":46,"componentType":5126,"count":250,"max":[0.5,-47.5,46.77482223510742],"min":[-0.4992913603782654,-48.0,45.775177001953128],"type":"VEC3"},{"bufferView":47,"componentType":5126,"count":250,"max":[1.0,1.0,0.9996455907821655],"min":[-0.9985827207565308,-1.0,-0.9996455907821655],"type":"VEC3"},{"bufferView":48,"componentType":5125,"count":696,"max":[249.0],"min":[0.0],"type":"SCALAR"},{"bufferView":49,"componentType":5126,"count":250,"max":[0.5,-47.5,36.244239807128909],"min":[-0.4992913603782654,-48.0,35.24459457397461],"type":"VEC3"},{"bufferView":50,"componentType":5126,"count":250,"max":[1.0,1.0,0.9996455907821655],"min":[-0.9985827207565308,-1.0,-0.9996455907821655],"type":"VEC3"},{"bufferView":51,"componentType":5125,"count":540,"max":[197.0],"min":[0.0],"type":"SCALAR"},{"bufferView":52,"componentType":5126,"count":198,"max":[-14.696311950683594,-48.5,46.53078079223633],"min":[-15.196311950683594,-49.5,46.03194808959961],"type":"VEC3"},{"bufferView":53,"componentType":5126,"count":198,"max":[1.0,1.0,0.9976687431335449],"min":[-1.0,-1.0,-0.9976687431335449],"type":"VEC3"},{"bufferView":54,"componentType":5125,"count":540,"max":[197.0],"min":[0.0],"type":"SCALAR"},{"bufferView":55,"componentType":5126,"count":198,"max":[-4.75,-48.5,46.53078079223633],"min":[-5.25,-49.5,46.03194808959961],"type":"VEC3"},{"bufferView":56,"componentType":5126,"count":198,"max":[1.0,1.0,0.9976687431335449],"min":[-1.0,-1.0,-0.9976687431335449],"type":"VEC3"},{"bufferView":57,"componentType":5125,"count":540,"max":[197.0],"min":[0.0],"type":"SCALAR"},{"bufferView":58,"componentType":5126,"count":198,"max":[-14.696311950683594,-48.5,35.91905975341797],"min":[-15.196311950683594,-49.5,35.420223236083987],"type":"VEC3"},{"bufferView":59,"componentType":5126,"count":198,"max":[1.0,1.0,0.9976687431335449],"min":[-1.0,-1.0,-0.9976687431335449],"type":"VEC3"},{"bufferView":60,"componentType":5125,"count":540,"max":[197.0],"min":[0.0],"type":"SCALAR"},{"bufferView":61,"componentType":5126,"count":198,"max":[-4.75,-48.5,35.91905975341797],"min":[-5.25,-49.5,35.420223236083987],"type":"VEC3"},{"bufferView":62,"componentType":5126,"count":198,"max":[1.0,1.0,0.9976687431335449],"min":[-1.0,-1.0,-0.9976687431335449],"type":"VEC3"},{"bufferView":63,"componentType":5125,"count":966,"max":[379.0],"min":[0.0],"type":"SCALAR"},{"bufferView":64,"componentType":5126,"count":380,"max":[0.7525149583816528,-46.172630310058597,60.2406005859375],"min":[-1.4900850057601929,-48.16167449951172,49.2406005859375],"type":"VEC3"},{"bufferView":65,"componentType":5126,"count":380,"max":[1.0,1.0,1.0],"min":[-1.0,-1.0,-1.0],"type":"VEC3"},{"bufferView":66,"componentType":5125,"count":996,"max":[359.0],"min":[0.0],"type":"SCALAR"},{"bufferView":67,"componentType":5126,"count":360,"max":[-58.811256408691409,-41.0,9.83414077758789],"min":[-65.1591567993164,-45.0,3.8201913833618166],"type":"VEC3"},{"bufferView":68,"componentType":5126,"count":360,"max":[0.852916419506073,1.0,0.8521479368209839],"min":[-0.852916419506073,-1.0,-0.8521479368209839],"type":"VEC3"},{"bufferView":69,"componentType":5125,"count":756,"max":[333.0],"min":[0.0],"type":"SCALAR"},{"bufferView":70,"componentType":5126,"count":334,"max":[3.0,-45.0,50.34159851074219],"min":[-25.5,-55.0,0.0],"type":"VEC3"},{"bufferView":71,"componentType":5126,"count":334,"max":[1.0,1.0,1.0],"min":[-1.0,-1.0,-1.0],"type":"VEC3"}],"asset":{"generator":"SimLab GLTF","version":"2.0"},"bufferViews":[{"buffer":0,"byteLength":120,"target":34963},{"buffer":0,"byteLength":240,"byteOffset":120,"byteStride":12,"target":34962},{"buffer":0,"byteLength":240,"byteOffset":360,"byteStride":12,"target":34962},{"buffer":0,"byteLength":24,"byteOffset":600,"target":34963},{"buffer":0,"byteLength":48,"byteOffset":624,"byteStride":12,"target":34962},{"buffer":0,"byteLength":48,"byteOffset":672,"byteStride":12,"target":34962},{"buffer":0,"byteLength":288,"byteOffset":720,"target":34963},{"buffer":0,"byteLength":480,"byteOffset":1008,"byteStride":12,"target":34962},{"buffer":0,"byteLength":480,"byteOffset":1488,"byteStride":12,"target":34962},{"buffer":0,"byteLength":96,"byteOffset":1968,"target":34963},{"buffer":0,"byteLength":96,"byteOffset":2064,"byteStride":12,"target":34962},{"buffer":0,"byteLength":96,"byteOffset":2160,"byteStride":12,"target":34962},{"buffer":0,"byteLength":96,"byteOffset":2256,"target":34963},{"buffer":0,"byteLength":192,"byteOffset":2352,"byteStride":12,"target":34962},{"buffer":0,"byteLength":192,"byteOffset":2544,"byteStride":12,"target":34962},{"buffer":0,"byteLength":48,"byteOffset":2736,"target":34963},{"buffer":0,"byteLength":96,"byteOffset":2784,"byteStride":12,"target":34962},{"buffer":0,"byteLength":96,"byteOffset":2880,"byteStride":12,"target":34962},{"buffer":0,"byteLength":96,"byteOffset":2976,"target":34963},{"buffer":0,"byteLength":192,"byteOffset":3072,"byteStride":12,"target":34962},{"buffer":0,"byteLength":192,"byteOffset":3264,"byteStride":12,"target":34962},{"buffer":0,"byteLength":48,"byteOffset":3456,"target":34963},{"buffer":0,"byteLength":96,"byteOffset":3504,"byteStride":12,"target":34962},{"buffer":0,"byteLength":96,"byteOffset":3600,"byteStride":12,"target":34962},{"buffer":0,"byteLength":175728,"byteOffset":3696,"target":34963},{"buffer":0,"byteLength":274080,"byteOffset":179424,"byteStride":12,"target":34962},{"buffer":0,"byteLength":274080,"byteOffset":453504,"byteStride":12,"target":34962},{"buffer":0,"byteLength":31200,"byteOffset":727584,"target":34963},{"buffer":0,"byteLength":34656,"byteOffset":758784,"byteStride":12,"target":34962},{"buffer":0,"byteLength":34656,"byteOffset":793440,"byteStride":12,"target":34962},{"buffer":0,"byteLength":57888,"byteOffset":828096,"target":34963},{"buffer":0,"byteLength":66984,"byteOffset":885984,"byteStride":12,"target":34962},{"buffer":0,"byteLength":66984,"byteOffset":952968,"byteStride":12,"target":34962},{"buffer":0,"byteLength":33912,"byteOffset":1019952,"target":34963},{"buffer":0,"byteLength":28020,"byteOffset":1053864,"byteStride":12,"target":34962},{"buffer":0,"byteLength":28020,"byteOffset":1081884,"byteStride":12,"target":34962},{"buffer":0,"byteLength":2112,"byteOffset":1109904,"target":34963},{"buffer":0,"byteLength":2592,"byteOffset":1112016,"byteStride":12,"target":34962},{"buffer":0,"byteLength":2592,"byteOffset":1114608,"byteStride":12,"target":34962},{"buffer":0,"byteLength":2784,"byteOffset":1117200,"target":34963},{"buffer":0,"byteLength":3000,"byteOffset":1119984,"byteStride":12,"target":34962},{"buffer":0,"byteLength":3000,"byteOffset":1122984,"byteStride":12,"target":34962},{"buffer":0,"byteLength":2784,"byteOffset":1125984,"target":34963},{"buffer":0,"byteLength":3000,"byteOffset":1128768,"byteStride":12,"target":34962},{"buffer":0,"byteLength":3000,"byteOffset":1131768,"byteStride":12,"target":34962},{"buffer":0,"byteLength":2784,"byteOffset":1134768,"target":34963},{"buffer":0,"byteLength":3000,"byteOffset":1137552,"byteStride":12,"target":34962},{"buffer":0,"byteLength":3000,"byteOffset":1140552,"byteStride":12,"target":34962},{"buffer":0,"byteLength":2784,"byteOffset":1143552,"target":34963},{"buffer":0,"byteLength":3000,"byteOffset":1146336,"byteStride":12,"target":34962},{"buffer":0,"byteLength":3000,"byteOffset":1149336,"byteStride":12,"target":34962},{"buffer":0,"byteLength":2160,"byteOffset":1152336,"target":34963},{"buffer":0,"byteLength":2376,"byteOffset":1154496,"byteStride":12,"target":34962},{"buffer":0,"byteLength":2376,"byteOffset":1156872,"byteStride":12,"target":34962},{"buffer":0,"byteLength":2160,"byteOffset":1159248,"target":34963},{"buffer":0,"byteLength":2376,"byteOffset":1161408,"byteStride":12,"target":34962},{"buffer":0,"byteLength":2376,"byteOffset":1163784,"byteStride":12,"target":34962},{"buffer":0,"byteLength":2160,"byteOffset":1166160,"target":34963},{"buffer":0,"byteLength":2376,"byteOffset":1168320,"byteStride":12,"target":34962},{"buffer":0,"byteLength":2376,"byteOffset":1170696,"byteStride":12,"target":34962},{"buffer":0,"byteLength":2160,"byteOffset":1173072,"target":34963},{"buffer":0,"byteLength":2376,"byteOffset":1175232,"byteStride":12,"target":34962},{"buffer":0,"byteLength":2376,"byteOffset":1177608,"byteStride":12,"target":34962},{"buffer":0,"byteLength":3864,"byteOffset":1179984,"target":34963},{"buffer":0,"byteLength":4560,"byteOffset":1183848,"byteStride":12,"target":34962},{"buffer":0,"byteLength":4560,"byteOffset":1188408,"byteStride":12,"target":34962},{"buffer":0,"byteLength":3984,"byteOffset":1192968,"target":34963},{"buffer":0,"byteLength":4320,"byteOffset":1196952,"byteStride":12,"target":34962},{"buffer":0,"byteLength":4320,"byteOffset":1201272,"byteStride":12,"target":34962},{"buffer":0,"byteLength":3024,"byteOffset":1205592,"target":34963},{"buffer":0,"byteLength":4008,"byteOffset":1208616,"byteStride":12,"target":34962},{"buffer":0,"byteLength":4008,"byteOffset":1212624,"byteStride":12,"target":34962}],"buffers":[{"byteLength":1216632,"uri":"TAOB.bin"}],"extensionsUsed":["KHR_materials_pbrSpecularGlossiness"],"materials":[{"extensions":{"KHR_materials_pbrSpecularGlossiness":{"diffuseFactor":[0.7921568751335144,0.8196078538894653,0.9333333373069763,1.0],"specularFactor":[0.0,0.0,0.0],"glossinessFactor":0.5}},"name":"Opaque(202,209,238)","alphaMode":"MASK","doubleSided":true,"pbrMetallicRoughness":{"baseColorFactor":[0.7921568751335144,0.8196078538894653,0.9333333373069763,1.0],"metallicFactor":0.5}},{"extensions":{"KHR_materials_pbrSpecularGlossiness":{"diffuseFactor":[0.6274510025978088,0.6274510025978088,0.6274510025978088,1.0],"specularFactor":[0.0,0.0,0.0],"glossinessFactor":0.5}},"name":"Steel - Satin","alphaMode":"MASK","doubleSided":true,"pbrMetallicRoughness":{"baseColorFactor":[0.6274510025978088,0.6274510025978088,0.6274510025978088,1.0],"metallicFactor":0.5}}],"meshes":[{"primitives":[{"attributes":{"NORMAL":2,"POSITION":1},"indices":0,"material":0,"mode":4}]},{"primitives":[{"attributes":{"NORMAL":5,"POSITION":4},"indices":3,"material":1,"mode":4}]},{"primitives":[{"attributes":{"NORMAL":8,"POSITION":7},"indices":6,"material":0,"mode":4}]},{"primitives":[{"attributes":{"NORMAL":11,"POSITION":10},"indices":9,"material":1,"mode":4}]},{"primitives":[{"attributes":{"NORMAL":14,"POSITION":13},"indices":12,"material":1,"mode":4}]},{"primitives":[{"attributes":{"NORMAL":17,"POSITION":16},"indices":15,"material":0,"mode":4}]},{"primitives":[{"attributes":{"NORMAL":20,"POSITION":19},"indices":18,"material":1,"mode":4}]},{"primitives":[{"attributes":{"NORMAL":23,"POSITION":22},"indices":21,"material":0,"mode":4}]},{"primitives":[{"attributes":{"NORMAL":26,"POSITION":25},"indices":24,"material":0,"mode":4}]},{"primitives":[{"attributes":{"NORMAL":29,"POSITION":28},"indices":27,"material":1,"mode":4}]},{"primitives":[{"attributes":{"NORMAL":32,"POSITION":31},"indices":30,"material":0,"mode":4}]},{"primitives":[{"attributes":{"NORMAL":35,"POSITION":34},"indices":33,"material":1,"mode":4}]},{"primitives":[{"attributes":{"NORMAL":38,"POSITION":37},"indices":36,"material":1,"mode":4}]},{"primitives":[{"attributes":{"NORMAL":41,"POSITION":40},"indices":39,"material":1,"mode":4}]},{"primitives":[{"attributes":{"NORMAL":44,"POSITION":43},"indices":42,"material":1,"mode":4}]},{"primitives":[{"attributes":{"NORMAL":47,"POSITION":46},"indices":45,"material":1,"mode":4}]},{"primitives":[{"attributes":{"NORMAL":50,"POSITION":49},"indices":48,"material":1,"mode":4}]},{"primitives":[{"attributes":{"NORMAL":53,"POSITION":52},"indices":51,"material":1,"mode":4}]},{"primitives":[{"attributes":{"NORMAL":56,"POSITION":55},"indices":54,"material":1,"mode":4}]},{"primitives":[{"attributes":{"NORMAL":59,"POSITION":58},"indices":57,"material":1,"mode":4}]},{"primitives":[{"attributes":{"NORMAL":62,"POSITION":61},"indices":60,"material":1,"mode":4}]},{"primitives":[{"attributes":{"NORMAL":65,"POSITION":64},"indices":63,"material":1,"mode":4}]},{"primitives":[{"attributes":{"NORMAL":68,"POSITION":67},"indices":66,"material":1,"mode":4}]},{"primitives":[{"attributes":{"NORMAL":71,"POSITION":70},"indices":69,"material":0,"mode":4}]}],"nodes":[{"children":[1,2],"matrix":[1.0,0.0,0.0,0.0,0.0,4.4896593387466768e-11,-1.0,0.0,0.0,1.0,4.4896593387466768e-11,0.0,0.0,0.0,0.0,1.0]},{"name":"Camera-2","rotation":[-0.7071067690849304,0.0,0.0,-0.7071067690849304],"translation":[-0.290812224149704,-5.589176654815674,-0.4822930097579956]},{"name":"V1 v7","children":[3,6,9,12,15,18,19,20,21,22,23,24,25,26,27,28,29,30,31,32],"rotation":[-0.7071067690849304,0.0,0.0,-0.7071067690849304],"scale":[0.009999999776482582,0.009999999776482582,0.009999999776482582]},{"name":"4Body4 (4) (1)","children":[4,5],"rotation":[0.0,0.0,0.0,-1.0]},{"name":"4Body4 (4) (1)_Opaque(255,255,255)","mesh":0,"rotation":[0.0,0.0,0.0,-1.0]},{"name":"4Body4 (4) (1)_Steel - Satin","mesh":1,"rotation":[0.0,0.0,0.0,-1.0]},{"name":"4Body4 (5) (1)","children":[7,8],"rotation":[0.0,0.0,0.0,-1.0]},{"name":"4Body4 (5) (1)_Opaque(255,255,255)","mesh":2,"rotation":[0.0,0.0,0.0,-1.0]},{"name":"4Body4 (5) (1)_Steel - Satin","mesh":3,"rotation":[0.0,0.0,0.0,-1.0]},{"name":"4Body4 (3) (1)","children":[10,11],"rotation":[0.0,0.0,0.0,-1.0]},{"name":"4Body4 (3) (1)_Steel - Satin","mesh":4,"rotation":[0.0,0.0,0.0,-1.0]},{"name":"4Body4 (3) (1)_Opaque(255,255,255)","mesh":5,"rotation":[0.0,0.0,0.0,-1.0]},{"name":"4Body4 (1) (1)","children":[13,14],"rotation":[0.0,0.0,0.0,-1.0]},{"name":"4Body4 (1) (1)_Steel - Satin","mesh":6,"rotation":[0.0,0.0,0.0,-1.0]},{"name":"4Body4 (1) (1)_Opaque(255,255,255)","mesh":7,"rotation":[0.0,0.0,0.0,-1.0]},{"name":"4Body4 (6)","children":[16,17],"rotation":[0.0,0.0,0.0,-1.0]},{"name":"4Body4 (6)_Opaque(0,0,49)","mesh":8,"rotation":[0.0,0.0,0.0,-1.0]},{"name":"4Body4 (6)_Steel - Satin","mesh":9,"rotation":[0.0,0.0,0.0,-1.0]},{"name":"Body1","rotation":[0.0,0.0,0.0,-1.0]},{"name":"Body2","mesh":10,"rotation":[0.0,0.0,0.0,-1.0]},{"name":"Body60","mesh":11,"rotation":[0.0,0.0,0.0,-1.0]},{"name":"Body61","mesh":12,"rotation":[0.0,0.0,0.0,-1.0]},{"name":"Body62","mesh":13,"rotation":[0.0,0.0,0.0,-1.0]},{"name":"Body63","mesh":14,"rotation":[0.0,0.0,0.0,-1.0]},{"name":"Body64","mesh":15,"rotation":[0.0,0.0,0.0,-1.0]},{"name":"Body65","mesh":16,"rotation":[0.0,0.0,0.0,-1.0]},{"name":"Body66","mesh":17,"rotation":[0.0,0.0,0.0,-1.0]},{"name":"Body67","mesh":18,"rotation":[0.0,0.0,0.0,-1.0]},{"name":"Body68","mesh":19,"rotation":[0.0,0.0,0.0,-1.0]},{"name":"Body69","mesh":20,"rotation":[0.0,0.0,0.0,-1.0]},{"name":"Body70","mesh":21,"rotation":[0.0,0.0,0.0,-1.0]},{"name":"Body72","mesh":22,"rotation":[0.0,0.0,0.0,-1.0]},{"name":"Body73","mesh":23,"rotation":[0.0,0.0,0.0,-1.0]}],"scene":0,"scenes":[{"nodes":[0]}]}