{"accessors":[{"bufferView":0,"componentType":5125,"count":180,"max":[95.0],"min":[0.0],"type":"SCALAR"},{"bufferView":1,"componentType":5126,"count":96,"max":[-23.469999313354493,8.0,9.0],"min":[-24.809999465942384,4.0,7.5],"type":"VEC3"},{"bufferView":2,"componentType":5126,"count":96,"max":[1.0,1.0,1.0],"min":[-1.0,-1.0,-1.0],"type":"VEC3"},{"bufferView":3,"componentType":5125,"count":180,"max":[95.0],"min":[0.0],"type":"SCALAR"},{"bufferView":4,"componentType":5126,"count":96,"max":[-9.029999732971192,8.0,9.0],"min":[-10.369999885559082,4.0,7.5],"type":"VEC3"},{"bufferView":5,"componentType":5126,"count":96,"max":[1.0,1.0,1.0],"min":[-1.0,-1.0,-1.0],"type":"VEC3"},{"bufferView":6,"componentType":5125,"count":660,"max":[279.0],"min":[0.0],"type":"SCALAR"},{"bufferView":7,"componentType":5126,"count":280,"max":[-6.53000020980835,3.200000047683716,9.0],"min":[-12.369999885559082,1.7000000476837159,-2.0],"type":"VEC3"},{"bufferView":8,"componentType":5126,"count":280,"max":[1.0,1.0,1.0],"min":[-1.0,-1.0,-1.0],"type":"VEC3"},{"bufferView":9,"componentType":5125,"count":636,"max":[267.0],"min":[0.0],"type":"SCALAR"},{"bufferView":10,"componentType":5126,"count":268,"max":[-23.469999313354493,3.200000047683716,9.0],"min":[-25.309999465942384,-1.2999999523162842,-2.0],"type":"VEC3"},{"bufferView":11,"componentType":5126,"count":268,"max":[1.0,1.0,1.0],"min":[-1.0,-1.0,-1.0],"type":"VEC3"},{"bufferView":12,"componentType":5125,"count":312,"max":[131.0],"min":[0.0],"type":"SCALAR"},{"bufferView":13,"componentType":5126,"count":132,"max":[-8.529999732971192,5.199999809265137,5.065290451049805],"min":[-25.309999465942384,4.699999809265137,1.5652905702590943],"type":"VEC3"},{"bufferView":14,"componentType":5126,"count":132,"max":[1.0,1.0,1.0],"min":[-1.0,-1.0,-1.0],"type":"VEC3"},{"bufferView":15,"componentType":5125,"count":132,"max":[71.0],"min":[0.0],"type":"SCALAR"},{"bufferView":16,"componentType":5126,"count":72,"max":[-8.649999618530274,-0.30000001192092898,5.219516754150391],"min":[-10.25,-2.200000047683716,2.949516773223877],"type":"VEC3"},{"bufferView":17,"componentType":5126,"count":72,"max":[1.0,1.0,1.0],"min":[-1.0,-1.0,-1.0],"type":"VEC3"}],"asset":{"generator":"SimLab GLTF","version":"2.0"},"bufferViews":[{"buffer":0,"byteLength":720,"target":34963},{"buffer":0,"byteLength":1152,"byteOffset":720,"byteStride":12,"target":34962},{"buffer":0,"byteLength":1152,"byteOffset":1872,"byteStride":12,"target":34962},{"buffer":0,"byteLength":720,"byteOffset":3024,"target":34963},{"buffer":0,"byteLength":1152,"byteOffset":3744,"byteStride":12,"target":34962},{"buffer":0,"byteLength":1152,"byteOffset":4896,"byteStride":12,"target":34962},{"buffer":0,"byteLength":2640,"byteOffset":6048,"target":34963},{"buffer":0,"byteLength":3360,"byteOffset":8688,"byteStride":12,"target":34962},{"buffer":0,"byteLength":3360,"byteOffset":12048,"byteStride":12,"target":34962},{"buffer":0,"byteLength":2544,"byteOffset":15408,"target":34963},{"buffer":0,"byteLength":3216,"byteOffset":17952,"byteStride":12,"target":34962},{"buffer":0,"byteLength":3216,"byteOffset":21168,"byteStride":12,"target":34962},{"buffer":0,"byteLength":1248,"byteOffset":24384,"target":34963},{"buffer":0,"byteLength":1584,"byteOffset":25632,"byteStride":12,"target":34962},{"buffer":0,"byteLength":1584,"byteOffset":27216,"byteStride":12,"target":34962},{"buffer":0,"byteLength":528,"byteOffset":28800,"target":34963},{"buffer":0,"byteLength":864,"byteOffset":29328,"byteStride":12,"target":34962},{"buffer":0,"byteLength":864,"byteOffset":30192,"byteStride":12,"target":34962}],"buffers":[{"byteLength":31056,"uri":"UV Holder.bin"}],"extensionsUsed":["KHR_materials_pbrSpecularGlossiness"],"materials":[{"extensions":{"KHR_materials_pbrSpecularGlossiness":{"diffuseFactor":[0.6274510025978088,0.6274510025978088,0.6274510025978088,1.0],"specularFactor":[0.0,0.0,0.0],"glossinessFactor":0.5}},"name":"Steel - Satin","alphaMode":"MASK","doubleSided":true,"pbrMetallicRoughness":{"baseColorFactor":[0.6274510025978088,0.6274510025978088,0.6274510025978088,1.0],"metallicFactor":0.5}}],"meshes":[{"primitives":[{"attributes":{"NORMAL":2,"POSITION":1},"indices":0,"material":0,"mode":4}]},{"primitives":[{"attributes":{"NORMAL":5,"POSITION":4},"indices":3,"material":0,"mode":4}]},{"primitives":[{"attributes":{"NORMAL":8,"POSITION":7},"indices":6,"material":0,"mode":4}]},{"primitives":[{"attributes":{"NORMAL":11,"POSITION":10},"indices":9,"material":0,"mode":4}]},{"primitives":[{"attributes":{"NORMAL":14,"POSITION":13},"indices":12,"material":0,"mode":4}]},{"primitives":[{"attributes":{"NORMAL":17,"POSITION":16},"indices":15,"material":0,"mode":4}]}],"nodes":[{"children":[1,2],"matrix":[1.0,0.0,0.0,0.0,0.0,4.4896593387466768e-11,-1.0,0.0,0.0,1.0,4.4896593387466768e-11,0.0,0.0,0.0,0.0,1.0]},{"name":"Camera-2","rotation":[-0.7071067690849304,0.0,0.0,-0.7071067690849304],"translation":[-0.15919999778270722,-0.7861999869346619,0.028999999165534974]},{"name":"UV Holder v2","children":[3,4,5,6,7,8],"rotation":[-0.7071067690849304,0.0,0.0,-0.7071067690849304],"scale":[0.009999999776482582,0.009999999776482582,0.009999999776482582]},{"name":"Holder1","mesh":0,"rotation":[0.0,0.0,0.0,-1.0]},{"name":"Holder2","mesh":1,"rotation":[0.0,0.0,0.0,-1.0]},{"name":"Stand1","mesh":2,"rotation":[0.0,0.0,0.0,-1.0]},{"name":"Stand2","mesh":3,"rotation":[0.0,0.0,0.0,-1.0]},{"name":"IC Holder","mesh":4,"rotation":[0.0,0.0,0.0,-1.0]},{"name":"Switch","mesh":5,"rotation":[0.0,0.0,0.0,-1.0]}],"scene":0,"scenes":[{"nodes":[0]}]}