{"accessors":[{"bufferView":0,"componentType":5125,"count":1140,"max":[479.0],"min":[0.0],"type":"SCALAR"},{"bufferView":1,"componentType":5126,"count":480,"max":[9.163163185119629,19.479326248168947,7.682967185974121],"min":[1.6631873846054078,-1.0206741094589234,5.682967185974121],"type":"VEC3"},{"bufferView":2,"componentType":5126,"count":480,"max":[1.0,1.0,1.0],"min":[-1.0,-1.0,-1.0],"type":"VEC3"},{"bufferView":3,"componentType":5125,"count":1548,"max":[647.0],"min":[0.0],"type":"SCALAR"},{"bufferView":4,"componentType":5126,"count":648,"max":[10.862236022949219,18.579326629638673,4.641086578369141],"min":[-5.240192413330078,-0.12067408114671707,2.882986545562744],"type":"VEC3"},{"bufferView":5,"componentType":5126,"count":648,"max":[1.0,1.0,1.0],"min":[-1.0,-1.0,-1.0],"type":"VEC3"},{"bufferView":6,"componentType":5125,"count":84,"max":[47.0],"min":[0.0],"type":"SCALAR"},{"bufferView":7,"componentType":5126,"count":48,"max":[7.303187370300293,18.279329299926759,7.982967376708984],"min":[1.6631873846054078,0.17933014035224915,7.682967185974121],"type":"VEC3"},{"bufferView":8,"componentType":5126,"count":48,"max":[1.0,1.0,1.0],"min":[-1.0,-1.0,-1.0],"type":"VEC3"},{"bufferView":9,"componentType":5125,"count":708,"max":[281.0],"min":[0.0],"type":"SCALAR"},{"bufferView":10,"componentType":5126,"count":282,"max":[-1.312600016593933,17.029329299926759,11.197400093078614],"min":[-3.087399959564209,1.3293300867080689,9.422599792480469],"type":"VEC3"},{"bufferView":11,"componentType":5126,"count":282,"max":[1.0,1.0,1.0],"min":[-1.0,-1.0,-1.0],"type":"VEC3"},{"bufferView":12,"componentType":5125,"count":1152,"max":[415.0],"min":[0.0],"type":"SCALAR"},{"bufferView":13,"componentType":5126,"count":416,"max":[4.698906421661377,4.704329967498779,10.332488059997559],"min":[2.2006781101226808,3.7043302059173586,7.8333740234375],"type":"VEC3"},{"bufferView":14,"componentType":5126,"count":416,"max":[1.0,1.0,0.9996455907821655],"min":[-1.0,-1.0,-0.9996455907821655],"type":"VEC3"},{"bufferView":15,"componentType":5125,"count":756,"max":[273.0],"min":[0.0],"type":"SCALAR"},{"bufferView":16,"componentType":5126,"count":274,"max":[4.698906421661377,14.754329681396485,10.332488059997559],"min":[2.2006781101226808,13.754329681396485,7.8333740234375],"type":"VEC3"},{"bufferView":17,"componentType":5126,"count":274,"max":[1.0,1.0,1.0],"min":[-1.0,-1.0,-1.0],"type":"VEC3"},{"bufferView":18,"componentType":5125,"count":1344,"max":[550.0],"min":[0.0],"type":"SCALAR"},{"bufferView":19,"componentType":5126,"count":551,"max":[10.862236022949219,18.279325485229493,12.547213554382325],"min":[-7.740215301513672,15.479326248168946,3.382986545562744],"type":"VEC3"},{"bufferView":20,"componentType":5126,"count":551,"max":[1.0,1.0,1.0],"min":[-1.0,-1.0,-1.0],"type":"VEC3"},{"bufferView":21,"componentType":5125,"count":1728,"max":[704.0],"min":[0.0],"type":"SCALAR"},{"bufferView":22,"componentType":5126,"count":705,"max":[10.862236022949219,4.129325866699219,12.547213554382325],"min":[-7.740215301513672,0.17933014035224915,3.382986545562744],"type":"VEC3"},{"bufferView":23,"componentType":5126,"count":705,"max":[1.0,1.0,1.0],"min":[-1.0,-1.0,-1.0],"type":"VEC3"},{"bufferView":24,"componentType":5125,"count":612,"max":[243.0],"min":[0.0],"type":"SCALAR"},{"bufferView":25,"componentType":5126,"count":244,"max":[-0.949999988079071,17.279329299926759,9.399999618530274],"min":[-3.450000047683716,1.0793300867080689,6.900000095367432],"type":"VEC3"},{"bufferView":26,"componentType":5126,"count":244,"max":[1.0,1.0,1.0],"min":[-1.0,-1.0,-1.0],"type":"VEC3"},{"bufferView":27,"componentType":5125,"count":36,"max":[23.0],"min":[0.0],"type":"SCALAR"},{"bufferView":28,"componentType":5126,"count":24,"max":[0.8345613479614258,18.279325485229493,9.52486515045166],"min":[-0.08263926953077316,0.1793259233236313,8.546585083007813],"type":"VEC3"},{"bufferView":29,"componentType":5126,"count":24,"max":[0.9848077297210693,1.0,0.7330096960067749],"min":[-0.7330096960067749,-1.0,-0.7315509915351868],"type":"VEC3"},{"bufferView":30,"componentType":5125,"count":108,"max":[59.0],"min":[0.0],"type":"SCALAR"},{"bufferView":31,"componentType":5126,"count":60,"max":[1.21162748336792,17.179325103759767,8.61585521697998],"min":[-0.5391323566436768,1.359325885772705,3.382986545562744],"type":"VEC3"},{"bufferView":32,"componentType":5126,"count":60,"max":[1.0,1.0,1.0],"min":[-1.0,-1.0,-1.0],"type":"VEC3"},{"bufferView":33,"componentType":5125,"count":36,"max":[23.0],"min":[0.0],"type":"SCALAR"},{"bufferView":34,"componentType":5126,"count":24,"max":[-0.3700000047683716,0.9793301224708557,9.479999542236329],"min":[-4.465000152587891,-1.0206698179244996,9.319999694824219],"type":"VEC3"},{"bufferView":35,"componentType":5126,"count":24,"max":[1.0,1.0,1.0],"min":[-1.0,-1.0,-1.0],"type":"VEC3"},{"bufferView":36,"componentType":5125,"count":264,"max":[105.0],"min":[0.0],"type":"SCALAR"},{"bufferView":37,"componentType":5126,"count":106,"max":[3.557020425796509,14.754329681396485,10.579424858093262],"min":[1.9506858587265015,3.7043302059173586,8.843331336975098],"type":"VEC3"},{"bufferView":38,"componentType":5126,"count":106,"max":[0.9998829960823059,1.0,0.9976624846458435],"min":[-0.9999949336051941,-1.0,-0.9963746666908264],"type":"VEC3"},{"bufferView":39,"componentType":5125,"count":1032,"max":[457.0],"min":[0.0],"type":"SCALAR"},{"bufferView":40,"componentType":5126,"count":458,"max":[-5.34021520614624,10.241826057434082,15.404394149780274],"min":[-6.040215492248535,8.216825485229493,11.879393577575684],"type":"VEC3"},{"bufferView":41,"componentType":5126,"count":458,"max":[1.0,1.0,1.0],"min":[-1.0,-1.0,-1.0],"type":"VEC3"},{"bufferView":42,"componentType":5126,"count":458,"max":[1.0,1.0],"min":[0.0,0.0],"type":"VEC2"},{"bufferView":43,"componentType":5125,"count":3864,"max":[1564.0],"min":[0.0],"type":"SCALAR"},{"bufferView":44,"componentType":5126,"count":1565,"max":[-5.740215301513672,10.241826057434082,15.404394149780274],"min":[-6.740215301513672,8.216825485229493,11.879393577575684],"type":"VEC3"},{"bufferView":45,"componentType":5126,"count":1565,"max":[1.0,1.0,1.0],"min":[-1.0,-1.0,-1.0],"type":"VEC3"},{"bufferView":46,"componentType":5125,"count":408,"max":[187.0],"min":[0.0],"type":"SCALAR"},{"bufferView":47,"componentType":5126,"count":188,"max":[-5.740215301513672,8.216830253601075,13.14721393585205],"min":[-6.740215301513672,-0.12066976726055145,10.547213554382325],"type":"VEC3"},{"bufferView":48,"componentType":5126,"count":188,"max":[1.0,1.0,1.0],"min":[-1.0,-1.0,-1.0],"type":"VEC3"},{"bufferView":49,"componentType":5125,"count":408,"max":[187.0],"min":[0.0],"type":"SCALAR"},{"bufferView":50,"componentType":5126,"count":188,"max":[-5.740215301513672,18.579320907592775,13.14721393585205],"min":[-6.740215301513672,10.2418212890625,10.547213554382325],"type":"VEC3"},{"bufferView":51,"componentType":5126,"count":188,"max":[1.0,1.0,1.0],"min":[-1.0,-1.0,-1.0],"type":"VEC3"},{"bufferView":52,"componentType":5125,"count":36,"max":[23.0],"min":[0.0],"type":"SCALAR"},{"bufferView":53,"componentType":5126,"count":24,"max":[-0.38999998569488528,0.9793259501457214,6.960000038146973],"min":[-4.485000133514404,-1.0206741094589234,6.800000190734863],"type":"VEC3"},{"bufferView":54,"componentType":5126,"count":24,"max":[1.0,1.0,1.0],"min":[-1.0,-1.0,-1.0],"type":"VEC3"}],"asset":{"generator":"SimLab GLTF","version":"2.0"},"bufferViews":[{"buffer":0,"byteLength":4560,"target":34963},{"buffer":0,"byteLength":5760,"byteOffset":4560,"byteStride":12,"target":34962},{"buffer":0,"byteLength":5760,"byteOffset":10320,"byteStride":12,"target":34962},{"buffer":0,"byteLength":6192,"byteOffset":16080,"target":34963},{"buffer":0,"byteLength":7776,"byteOffset":22272,"byteStride":12,"target":34962},{"buffer":0,"byteLength":7776,"byteOffset":30048,"byteStride":12,"target":34962},{"buffer":0,"byteLength":336,"byteOffset":37824,"target":34963},{"buffer":0,"byteLength":576,"byteOffset":38160,"byteStride":12,"target":34962},{"buffer":0,"byteLength":576,"byteOffset":38736,"byteStride":12,"target":34962},{"buffer":0,"byteLength":2832,"byteOffset":39312,"target":34963},{"buffer":0,"byteLength":3384,"byteOffset":42144,"byteStride":12,"target":34962},{"buffer":0,"byteLength":3384,"byteOffset":45528,"byteStride":12,"target":34962},{"buffer":0,"byteLength":4608,"byteOffset":48912,"target":34963},{"buffer":0,"byteLength":4992,"byteOffset":53520,"byteStride":12,"target":34962},{"buffer":0,"byteLength":4992,"byteOffset":58512,"byteStride":12,"target":34962},{"buffer":0,"byteLength":3024,"byteOffset":63504,"target":34963},{"buffer":0,"byteLength":3288,"byteOffset":66528,"byteStride":12,"target":34962},{"buffer":0,"byteLength":3288,"byteOffset":69816,"byteStride":12,"target":34962},{"buffer":0,"byteLength":5376,"byteOffset":73104,"target":34963},{"buffer":0,"byteLength":6612,"byteOffset":78480,"byteStride":12,"target":34962},{"buffer":0,"byteLength":6612,"byteOffset":85092,"byteStride":12,"target":34962},{"buffer":0,"byteLength":6912,"byteOffset":91704,"target":34963},{"buffer":0,"byteLength":8460,"byteOffset":98616,"byteStride":12,"target":34962},{"buffer":0,"byteLength":8460,"byteOffset":107076,"byteStride":12,"target":34962},{"buffer":0,"byteLength":2448,"byteOffset":115536,"target":34963},{"buffer":0,"byteLength":2928,"byteOffset":117984,"byteStride":12,"target":34962},{"buffer":0,"byteLength":2928,"byteOffset":120912,"byteStride":12,"target":34962},{"buffer":0,"byteLength":144,"byteOffset":123840,"target":34963},{"buffer":0,"byteLength":288,"byteOffset":123984,"byteStride":12,"target":34962},{"buffer":0,"byteLength":288,"byteOffset":124272,"byteStride":12,"target":34962},{"buffer":0,"byteLength":432,"byteOffset":124560,"target":34963},{"buffer":0,"byteLength":720,"byteOffset":124992,"byteStride":12,"target":34962},{"buffer":0,"byteLength":720,"byteOffset":125712,"byteStride":12,"target":34962},{"buffer":0,"byteLength":144,"byteOffset":126432,"target":34963},{"buffer":0,"byteLength":288,"byteOffset":126576,"byteStride":12,"target":34962},{"buffer":0,"byteLength":288,"byteOffset":126864,"byteStride":12,"target":34962},{"buffer":0,"byteLength":1056,"byteOffset":127152,"target":34963},{"buffer":0,"byteLength":1272,"byteOffset":128208,"byteStride":12,"target":34962},{"buffer":0,"byteLength":1272,"byteOffset":129480,"byteStride":12,"target":34962},{"buffer":0,"byteLength":4128,"byteOffset":130752,"target":34963},{"buffer":0,"byteLength":5496,"byteOffset":134880,"byteStride":12,"target":34962},{"buffer":0,"byteLength":5496,"byteOffset":140376,"byteStride":12,"target":34962},{"buffer":0,"byteLength":3664,"byteOffset":145872,"byteStride":8,"target":34962},{"buffer":0,"byteLength":15456,"byteOffset":149536,"target":34963},{"buffer":0,"byteLength":18780,"byteOffset":164992,"byteStride":12,"target":34962},{"buffer":0,"byteLength":18780,"byteOffset":183772,"byteStride":12,"target":34962},{"buffer":0,"byteLength":1632,"byteOffset":202552,"target":34963},{"buffer":0,"byteLength":2256,"byteOffset":204184,"byteStride":12,"target":34962},{"buffer":0,"byteLength":2256,"byteOffset":206440,"byteStride":12,"target":34962},{"buffer":0,"byteLength":1632,"byteOffset":208696,"target":34963},{"buffer":0,"byteLength":2256,"byteOffset":210328,"byteStride":12,"target":34962},{"buffer":0,"byteLength":2256,"byteOffset":212584,"byteStride":12,"target":34962},{"buffer":0,"byteLength":144,"byteOffset":214840,"target":34963},{"buffer":0,"byteLength":288,"byteOffset":214984,"byteStride":12,"target":34962},{"buffer":0,"byteLength":288,"byteOffset":215272,"byteStride":12,"target":34962}],"buffers":[{"byteLength":215560,"uri":"Bill Dispenser.bin"}],"extensionsUsed":["KHR_materials_pbrSpecularGlossiness"],"images":[{"mimeType":"image/png","uri":"Textures/1_mats_texture_orangepeel_height.png.png"}],"materials":[{"extensions":{"KHR_materials_pbrSpecularGlossiness":{"diffuseFactor":[0.6274510025978088,0.6274510025978088,0.6274510025978088,1.0],"specularFactor":[0.0,0.0,0.0],"glossinessFactor":0.5}},"name":"Steel - Satin","alphaMode":"MASK","doubleSided":true,"pbrMetallicRoughness":{"baseColorFactor":[0.6274510025978088,0.6274510025978088,0.6274510025978088,1.0],"metallicFactor":0.5}},{"extensions":{"KHR_materials_pbrSpecularGlossiness":{"diffuseFactor":[0.3490196168422699,0.3490196168422699,0.3490196168422699,1.0],"specularFactor":[0.0,0.0,0.0],"glossinessFactor":0.5}},"name":"Powder Coat (Dark Grey)","alphaMode":"MASK","doubleSided":true,"normalTexture":{"index":0},"pbrMetallicRoughness":{"baseColorFactor":[0.3490196168422699,0.3490196168422699,0.3490196168422699,1.0],"metallicFactor":0.5}}],"meshes":[{"primitives":[{"attributes":{"NORMAL":2,"POSITION":1},"indices":0,"material":0,"mode":4}]},{"primitives":[{"attributes":{"NORMAL":5,"POSITION":4},"indices":3,"material":0,"mode":4}]},{"primitives":[{"attributes":{"NORMAL":8,"POSITION":7},"indices":6,"material":0,"mode":4}]},{"primitives":[{"attributes":{"NORMAL":11,"POSITION":10},"indices":9,"material":0,"mode":4}]},{"primitives":[{"attributes":{"NORMAL":14,"POSITION":13},"indices":12,"material":0,"mode":4}]},{"primitives":[{"attributes":{"NORMAL":17,"POSITION":16},"indices":15,"material":0,"mode":4}]},{"primitives":[{"attributes":{"NORMAL":20,"POSITION":19},"indices":18,"material":0,"mode":4}]},{"primitives":[{"attributes":{"NORMAL":23,"POSITION":22},"indices":21,"material":0,"mode":4}]},{"primitives":[{"attributes":{"NORMAL":26,"POSITION":25},"indices":24,"material":0,"mode":4}]},{"primitives":[{"attributes":{"NORMAL":29,"POSITION":28},"indices":27,"material":0,"mode":4}]},{"primitives":[{"attributes":{"NORMAL":32,"POSITION":31},"indices":30,"material":0,"mode":4}]},{"primitives":[{"attributes":{"NORMAL":35,"POSITION":34},"indices":33,"material":0,"mode":4}]},{"primitives":[{"attributes":{"NORMAL":38,"POSITION":37},"indices":36,"material":0,"mode":4}]},{"primitives":[{"attributes":{"NORMAL":41,"POSITION":40,"TEXCOORD_0":42},"indices":39,"material":1,"mode":4}]},{"primitives":[{"attributes":{"NORMAL":45,"POSITION":44},"indices":43,"material":0,"mode":4}]},{"primitives":[{"attributes":{"NORMAL":48,"POSITION":47},"indices":46,"material":0,"mode":4}]},{"primitives":[{"attributes":{"NORMAL":51,"POSITION":50},"indices":49,"material":0,"mode":4}]},{"primitives":[{"attributes":{"NORMAL":54,"POSITION":53},"indices":52,"material":0,"mode":4}]}],"nodes":[{"children":[1,2],"matrix":[1.0,0.0,0.0,0.0,0.0,4.4896593387466768e-11,-1.0,0.0,0.0,1.0,4.4896593387466768e-11,0.0,0.0,0.0,0.0,1.0]},{"name":"Camera-2","rotation":[-0.7071067690849304,0.0,0.0,-0.7071067690849304],"translation":[0.015610103495419026,-0.911436915397644,0.09229326248168946]},{"name":"New Bill Dispenser_F v8","children":[3,4,5,6,7,8,9,10,11,12,13,14,15,16,17,18,19,20,21,22,23,24,25,26,27,28,29,30,31,32,33,34,35,36],"rotation":[-0.7071067690849304,0.0,0.0,-0.7071067690849304],"scale":[0.009999999776482582,0.009999999776482582,0.009999999776482582]},{"name":"Right Holder","rotation":[0.0,0.0,0.0,-1.0]},{"name":"Money Plate","rotation":[0.0,0.0,0.0,-1.0]},{"name":"Motor Holder","rotation":[0.0,0.0,0.0,-1.0]},{"name":"R1","rotation":[0.0,0.0,0.0,-1.0]},{"name":"R3","rotation":[0.0,0.0,0.0,-1.0]},{"name":"R2","rotation":[0.0,0.0,0.0,-1.0]},{"name":"Body10","rotation":[0.0,0.0,0.0,-1.0]},{"name":"Roller Forward","rotation":[0.0,0.0,0.0,-1.0]},{"name":"Roller Forward Up","rotation":[0.0,0.0,0.0,-1.0]},{"name":"Ground","rotation":[0.0,0.0,0.0,-1.0]},{"name":"Left Holder","rotation":[0.0,0.0,0.0,-1.0]},{"name":"Body31","rotation":[0.0,0.0,0.0,-1.0]},{"name":"Money Plate (1)","mesh":0,"rotation":[0.0,0.0,0.0,-1.0]},{"name":"Ground (1)","mesh":1,"rotation":[0.0,0.0,0.0,-1.0]},{"name":"Motor Holder (1)","mesh":2,"rotation":[0.0,0.0,0.0,-1.0]},{"name":"Roller Forward Up (1)","mesh":3,"rotation":[0.0,0.0,0.0,-1.0]},{"name":"R2 (1)","mesh":4,"rotation":[0.0,0.0,0.0,-1.0]},{"name":"Body40","rotation":[0.0,0.0,0.0,-1.0]},{"name":"R1 (1)","mesh":5,"rotation":[0.0,0.0,0.0,-1.0]},{"name":"L:eft Holder","mesh":6,"rotation":[0.0,0.0,0.0,-1.0]},{"name":"Motor Holder2","rotation":[0.0,0.0,0.0,-1.0]},{"name":"Motor Holder1","rotation":[0.0,0.0,0.0,-1.0]},{"name":"Right Holder (1) (2)","mesh":7,"rotation":[0.0,0.0,0.0,-1.0]},{"name":"Roller Forward (1) (1)","mesh":8,"rotation":[0.0,0.0,0.0,-1.0]},{"name":"Guide","mesh":9,"rotation":[0.0,0.0,0.0,-1.0]},{"name":"Ramp","mesh":10,"rotation":[0.0,0.0,0.0,-1.0]},{"name":"Body76","rotation":[0.0,0.0,0.0,-1.0]},{"name":"Motor Holder1 (1)","mesh":11,"rotation":[0.0,0.0,0.0,-1.0]},{"name":"R3 (1)","mesh":12,"rotation":[0.0,0.0,0.0,-1.0]},{"name":"IR1","mesh":13,"rotation":[0.0,0.0,0.0,-1.0]},{"name":"IR2","mesh":14,"rotation":[0.0,0.0,0.0,-1.0]},{"name":"IR ARM1","mesh":15,"rotation":[0.0,0.0,0.0,-1.0]},{"name":"IR ARM2","mesh":16,"rotation":[0.0,0.0,0.0,-1.0]},{"name":"Motor Holder1 (1) (1)","mesh":17,"rotation":[0.0,0.0,0.0,-1.0]}],"scene":0,"scenes":[{"nodes":[0]}],"textures":[{"source":0}]}